<svg width="37" height="37" viewBox="0 0 37 37" fill="none" xmlns="http://www.w3.org/2000/svg">
<rect x="0.755045" y="0.755045" width="35.4899" height="35.4899" rx="17.366" stroke="white" stroke-opacity="0.584" stroke-width="1.51009"/>
<g clip-path="url(#clip0_28_3295)">
<g clip-path="url(#clip1_28_3295)">
<g clip-path="url(#clip2_28_3295)">
<path d="M16.9565 16.3764H15.6706V18.4752H16.9565V24.6348H19.4266V18.4471H21.1505L21.3327 16.3764H19.4266C19.4266 16.3764 19.4266 15.6021 19.4266 15.1956C19.4266 14.7086 19.5247 14.5124 19.9977 14.5124C20.3796 14.5124 21.3362 14.5124 21.3362 14.5124V12.3646C21.3362 12.3646 19.9277 12.3646 19.6263 12.3646C17.7868 12.3646 16.96 13.1739 16.96 14.7226C16.9565 16.0751 16.9565 16.3764 16.9565 16.3764Z" fill="white"/>
</g>
</g>
</g>
<defs>
<clipPath id="clip0_28_3295">
<rect width="12.0807" height="12.0807" fill="white" transform="translate(12.3337 12.3334) scale(1.02091)"/>
</clipPath>
<clipPath id="clip1_28_3295">
<rect width="12.0807" height="12.0807" fill="white" transform="translate(12.3347 12.3332) scale(1.02091)"/>
</clipPath>
<clipPath id="clip2_28_3295">
<rect width="5.55987" height="12.0807" fill="white" transform="translate(15.6626 12.3329) scale(1.02091)"/>
</clipPath>
</defs>
</svg>
