<svg width="37" height="37" viewBox="0 0 37 37" fill="none" xmlns="http://www.w3.org/2000/svg">
<rect x="0.755045" y="0.755045" width="35.4899" height="35.4899" rx="17.366" stroke="white" stroke-opacity="0.584" stroke-width="1.51009"/>
<g clip-path="url(#clip0_28_3300)">
<g clip-path="url(#clip1_28_3300)">
<g clip-path="url(#clip2_28_3300)">
<path d="M20.8158 12.3327H16.1908C14.0626 12.3327 12.3367 14.0586 12.3367 16.1868V20.8118C12.3367 22.9401 14.0626 24.666 16.1908 24.666H20.8158C22.9441 24.666 24.67 22.9401 24.67 20.8118V16.1868C24.67 14.0586 22.9441 12.3327 20.8158 12.3327ZM23.5137 20.8118C23.5137 22.2995 22.3035 23.5097 20.8158 23.5097H16.1908C14.7031 23.5097 13.4929 22.2995 13.4929 20.8118V16.1868C13.4929 14.6991 14.7031 13.4889 16.1908 13.4889H20.8158C22.3035 13.4889 23.5137 14.6991 23.5137 16.1868V20.8118Z" fill="white"/>
<path d="M18.5037 15.4166C16.8009 15.4166 15.4203 16.7971 15.4203 18.4999C15.4203 20.2027 16.8009 21.5832 18.5037 21.5832C20.2064 21.5832 21.587 20.2027 21.587 18.4999C21.587 16.7971 20.2064 15.4166 18.5037 15.4166ZM18.5037 20.427C17.4414 20.427 16.5766 19.5621 16.5766 18.4999C16.5766 17.4369 17.4414 16.5728 18.5037 16.5728C19.5659 16.5728 20.4307 17.4369 20.4307 18.4999C20.4307 19.5621 19.5659 20.427 18.5037 20.427Z" fill="white"/>
<path d="M21.8181 15.596C22.045 15.596 22.2289 15.412 22.2289 15.1851C22.2289 14.9582 22.045 14.7743 21.8181 14.7743C21.5911 14.7743 21.4072 14.9582 21.4072 15.1851C21.4072 15.412 21.5911 15.596 21.8181 15.596Z" fill="white"/>
</g>
</g>
</g>
<defs>
<clipPath id="clip0_28_3300">
<rect width="12.0807" height="12.0807" fill="white" transform="translate(12.3337 12.3334) scale(1.02091)"/>
</clipPath>
<clipPath id="clip1_28_3300">
<rect width="12.0807" height="12.0807" fill="white" transform="translate(12.3347 12.3332) scale(1.02091)"/>
</clipPath>
<clipPath id="clip2_28_3300">
<rect width="12.0807" height="12.0807" fill="white" transform="translate(12.3357 12.3329) scale(1.02091)"/>
</clipPath>
</defs>
</svg>
