<svg width="37" height="37" viewBox="0 0 37 37" fill="none" xmlns="http://www.w3.org/2000/svg">
<rect x="0.755045" y="0.755045" width="35.4899" height="35.4899" rx="17.366" stroke="white" stroke-opacity="0.584" stroke-width="1.51009"/>
<g clip-path="url(#clip0_28_3307)">
<g clip-path="url(#clip1_28_3307)">
<g clip-path="url(#clip2_28_3307)">
<path d="M15.0887 16.1865H12.3307V24.6657H15.0887V16.1865Z" fill="white"/>
<path d="M22.6004 16.2859C22.5711 16.2767 22.5434 16.2667 22.5125 16.2582C22.4755 16.2497 22.4385 16.2428 22.4008 16.2366C22.2543 16.2073 22.094 16.1865 21.9059 16.1865C20.2979 16.1865 19.2781 17.3559 18.942 17.8076V16.1865H16.184V24.6657H18.942V20.0407C18.942 20.0407 21.0264 17.1377 21.9059 19.2698C21.9059 21.173 21.9059 24.6657 21.9059 24.6657H24.6632V18.9438C24.6632 17.6626 23.7852 16.595 22.6004 16.2859Z" fill="white"/>
<path d="M13.6796 15.0296C14.4246 15.0296 15.0286 14.4256 15.0286 13.6806C15.0286 12.9356 14.4246 12.3317 13.6796 12.3317C12.9346 12.3317 12.3307 12.9356 12.3307 13.6806C12.3307 14.4256 12.9346 15.0296 13.6796 15.0296Z" fill="white"/>
</g>
</g>
</g>
<defs>
<clipPath id="clip0_28_3307">
<rect width="12.0807" height="12.0807" fill="white" transform="translate(12.3337 12.3332) scale(1.02091)"/>
</clipPath>
<clipPath id="clip1_28_3307">
<rect width="12.0807" height="12.0807" fill="white" transform="translate(12.3327 12.3327) scale(1.02091)"/>
</clipPath>
<clipPath id="clip2_28_3307">
<rect width="12.0807" height="12.0807" fill="white" transform="translate(12.3317 12.3322) scale(1.02091)"/>
</clipPath>
</defs>
</svg>
