<svg width="1" height="1" viewBox="0 0 1 1" fill="none" xmlns="http://www.w3.org/2000/svg">
<path d="M0.500022 1.15318e-08C0.565207 -1.4136e-05 0.629684 0.0129894 0.68978 0.0382381C0.749876 0.0634867 0.804342 0.100408 0.849957 0.146974C0.895571 0.193539 0.931449 0.248788 0.955454 0.309392C0.979458 0.369996 0.991126 0.434789 0.989768 0.49996C0.989782 0.566484 0.976482 0.632307 0.950721 0.693641C0.924959 0.754975 0.887256 0.810494 0.839743 0.857056C0.792231 0.903618 0.735866 0.940278 0.674024 0.964795C0.612182 0.989313 0.546106 1.00128 0.479595 0.999919C0.351407 0.992236 0.230823 0.936406 0.141929 0.843729C0.0530352 0.751052 0.00233827 0.628356 0 0.49996C0 0.36736 0.052713 0.240113 0.146476 0.146351C0.240238 0.0525885 0.367422 1.15316e-08 0.500022 1.15318e-08Z" fill="#004876"/>
</svg>
