<svg width="1" height="1" viewBox="0 0 1 1" fill="none" xmlns="http://www.w3.org/2000/svg">
<path d="M0.000108879 0.500069C-0.00128187 0.434031 0.0106619 0.368298 0.0352954 0.30701C0.0599289 0.245723 0.0967018 0.190053 0.143408 0.143346C0.190115 0.09664 0.245785 0.0598671 0.307072 0.0352336C0.36836 0.0106001 0.43403 -0.00128137 0.500069 0.000109373C0.628465 0.00244765 0.751223 0.0530823 0.8439 0.141976C0.936577 0.23087 0.992345 0.351455 1.00003 0.479642C0.997676 0.613445 0.944837 0.741359 0.85212 0.83786C0.759404 0.93436 0.63367 0.992329 0.500069 1.00003C0.368286 0.997418 0.24259 0.943891 0.149387 0.850689C0.0561842 0.757486 0.0027192 0.631852 0.000108879 0.500069Z" fill="#004876"/>
</svg>
