<svg width="1" height="1" viewBox="0 0 1 1" fill="none" xmlns="http://www.w3.org/2000/svg">
<path d="M0.00010839 0.49996C0.00010839 0.36736 0.0527591 0.240238 0.146522 0.146476C0.240284 0.052713 0.367468 0 0.500068 0C0.627582 0.00730412 0.74798 0.0612682 0.838295 0.151582C0.928609 0.241896 0.98251 0.362232 0.989814 0.489746C0.991168 0.555407 0.97957 0.620755 0.955687 0.681933C0.931804 0.743111 0.896107 0.798968 0.850625 0.846344C0.805144 0.893721 0.750788 0.931586 0.690636 0.957945C0.630483 0.984304 0.565729 0.998593 0.500068 0.999919C0.43403 1.00131 0.368422 0.989304 0.307134 0.964671C0.245846 0.940037 0.190177 0.903264 0.14347 0.856558C0.0967636 0.809851 0.0599907 0.754182 0.0353572 0.692894C0.0107237 0.631606 -0.00128236 0.565998 0.00010839 0.49996Z" fill="#004876"/>
</svg>
