<svg width="196" height="115" viewBox="0 0 196 115" fill="none" xmlns="http://www.w3.org/2000/svg">
<path d="M92.3063 33.8584C97.187 27.9743 103.221 27.3975 110.523 28.3589C119.669 29.5511 127.855 32.82 135.926 36.7812C140.883 39.204 145.764 39.7425 151.106 38.1272C156.256 36.5504 161.521 35.2429 166.786 34.2814C172.589 33.2431 178.469 32.7431 185.271 31.897C180.467 29.2434 176.009 26.0129 171.052 24.1669C157.947 19.2828 144.073 19.0136 130.276 18.7059C116.249 18.3982 102.529 20.475 89.1165 26.436C89.0397 20.898 91.384 16.9368 95.7651 15.4754C103.643 12.8218 111.714 10.3605 119.9 9.16832C140.499 6.20705 160.099 11.0528 179.084 18.7059C189.153 22.744 196.032 29.2819 195.609 41.2423C195.417 46.6264 195.878 52.0106 195.993 57.3947C196.147 63.6633 193.649 68.8937 188.96 72.8164C167.862 90.3533 143.65 95.5451 116.979 90.5071C115.211 90.1609 113.52 89.4687 111.868 88.8149C110.369 88.238 108.909 87.4689 106.833 86.469C103.72 93.776 97.3408 97.1988 90.4232 99.9293C89.7699 100.198 89.1934 100.737 88.7322 101.314C78.548 114.62 61.254 118.966 46.4965 111.044C40.5397 107.852 34.8519 103.467 30.2786 98.5063C15.6364 82.6232 6.06703 64.0479 2.56981 42.5499C1.64746 36.7812 0.225528 31.0509 0.0333725 25.2438C-0.696817 6.20703 10.6019 -2.98443 29.3563 0.861372C32.7766 1.55362 36.3123 2.16894 39.7711 1.93819C49.4557 1.36132 57.7184 4.78408 65.2509 10.2836C70.0932 13.8217 74.8202 17.5137 79.3166 21.4364C83.7362 25.2053 87.7714 29.4357 92.3063 33.8584ZM22.7845 7.28386C14.1376 7.20694 10.4482 9.55289 8.33446 16.6676C7.25839 20.3211 6.5282 24.3977 6.95094 28.1281C9.75641 52.472 19.6332 73.9701 35.1209 92.6992C43.6526 103.006 56.0658 106.39 68.9018 107.006C78.0868 107.467 82.6986 99.8139 78.3559 91.8147C75.2814 86.1998 71.4767 80.8926 67.3646 75.9699C60.4085 67.663 55.989 58.2408 51.8384 48.3571C46.8424 36.3966 40.1169 25.1669 34.0064 13.6679C31.4315 8.78374 27.1657 6.86082 22.7845 7.28386ZM109.101 78.9697C110.523 79.3927 111.483 79.7773 112.521 80.008C129.354 83.3539 146.225 83.5077 162.943 79.8927C173.281 77.6621 181.389 71.3934 186.77 62.1635C188 60.0483 189.614 56.9332 188.922 55.0872C187.231 50.5876 184.387 46.5495 181.851 42.3961C180.121 39.5886 177.393 38.9733 174.395 39.8578C169.514 41.3192 164.749 43.0883 159.83 44.319C155.679 45.3958 151.26 46.9726 147.186 46.4726C138.347 45.3958 129.123 44.3574 121.514 39.1656C114.981 34.7045 108.101 34.0122 100.646 34.666C96.2263 35.0506 94.8043 37.4734 97.1871 41.1654C104.527 52.6259 109.792 64.7017 109.101 78.9697ZM41.3468 7.05312C44.6903 13.3987 48.8024 18.8982 50.6471 25.0515C55.2204 40.4347 63.9442 52.972 74.8586 64.3171C75.5888 65.0863 76.2037 65.9324 76.8571 66.74C83.3903 75.3546 91.1149 83.4308 90.1542 96.3143C97.5714 90.0456 101.837 83.0078 100.415 74.2393C99.3392 67.7399 97.4945 60.7406 93.882 55.4333C87.195 45.5881 79.5088 36.2428 71.1692 27.7051C62.7144 19.052 52.4533 12.4757 41.3468 7.05312Z" fill="white" fill-opacity="0.1"/>
</svg>
