<svg width="956" height="603" viewBox="0 0 956 603" fill="none" xmlns="http://www.w3.org/2000/svg">
<path d="M87.1182 127.165L43.8091 102.161L0.50009 127.165M87.1182 127.165V177.174M87.1182 127.165L43.8091 152.17M87.1182 127.165L130.427 102.161L173.736 127.165M87.1182 127.165L130.427 152.17M87.1182 177.174L43.8091 202.178M87.1182 177.174L130.427 202.178M43.8091 202.178L0.50009 177.174V127.165M43.8091 202.178V152.17M43.8091 202.178L87.1182 227.183M43.8091 202.178L0.50009 227.183M0.50009 127.165L43.8091 152.17M173.736 127.165V177.174M173.736 127.165L130.427 152.17M173.736 127.165L217.045 102.161L260.354 127.165M173.736 127.165L217.045 152.17M173.736 177.174L130.427 202.178M173.736 177.174L217.045 202.178M130.427 202.178V152.17M130.427 202.178L173.736 227.183M130.427 202.178L87.1182 227.183M260.354 127.165V177.174M260.354 127.165L217.045 152.17M260.354 127.165L303.663 102.161L346.972 127.165M260.354 127.165L303.663 152.17M260.354 177.174L217.045 202.178M260.354 177.174L303.663 202.178M217.045 202.178V152.17M217.045 202.178L173.736 227.183M217.045 202.178L226.676 207.739M346.972 127.165V177.174M346.972 127.165L303.663 152.17M346.972 127.165L390.281 102.161L433.59 127.165M346.972 127.165L390.281 152.17M346.972 177.174L303.663 202.178M346.972 177.174L390.281 202.178M303.663 202.178V152.17M303.663 202.178L346.972 227.183M303.663 202.178L296.362 206.394M433.59 127.165V177.174M433.59 127.165L390.281 152.17M433.59 127.165L476.899 102.161L520.208 127.165M433.59 127.165L476.899 152.17M433.59 177.174L390.281 202.178M433.59 177.174L476.899 202.178M390.281 202.178V152.17M390.281 202.178L433.59 227.183M390.281 202.178L346.972 227.183M520.208 127.165V177.174M520.208 127.165L476.899 152.17M520.208 127.165L563.518 102.161L606.827 127.165M520.208 127.165L563.518 152.17M520.208 177.174L476.899 202.178M520.208 177.174L563.518 202.178M476.899 202.178V152.17M476.899 202.178L520.208 227.183M476.899 202.178L433.59 227.183M606.827 127.165V177.174M606.827 127.165L563.518 152.17M606.827 127.165L650.136 102.161L693.445 127.165M606.827 127.165L650.136 152.17M606.827 177.174L563.518 202.178M606.827 177.174L650.136 202.178M563.518 202.178V152.17M563.518 202.178L606.827 227.183M563.518 202.178L520.208 227.183M693.445 127.165V177.174M693.445 127.165L650.136 152.17M693.445 127.165L736.754 102.161L780.063 127.165M693.445 127.165L736.754 152.17M693.445 177.174L650.136 202.178M693.445 177.174L736.754 202.178M650.136 202.178V152.17M650.136 202.178L693.445 227.183M650.136 202.178L606.827 227.183M780.063 127.165V177.174L736.754 202.178M780.063 127.165L736.754 152.17M736.754 202.178V152.17M736.754 202.178L780.063 227.183M736.754 202.178L693.445 227.183M87.1182 227.183V277.192M87.1182 227.183L43.8091 252.187M87.1182 227.183L130.427 252.187M87.1182 277.192L43.8091 302.197M87.1182 277.192L130.427 302.197M43.8091 302.197L0.50009 277.192V227.183M43.8091 302.197V252.187M43.8091 302.197L87.1182 327.201M43.8091 302.197L0.50009 327.201M0.50009 227.183L43.8091 252.187M173.736 227.183L130.427 252.187M173.736 227.183L182.22 232.081M130.427 302.197V252.187M130.427 302.197L87.1182 327.201M130.427 302.197L139.244 307.287M130.427 302.197L141.796 295.633M346.972 227.183L390.281 252.187M346.972 227.183L342.618 229.697M433.59 227.183V277.192M433.59 227.183L390.281 252.187M433.59 227.183L476.899 252.187M433.59 277.192L390.281 302.197M433.59 277.192L476.899 302.197M390.281 302.197V252.187M390.281 302.197L433.59 327.201M390.281 302.197L387.816 303.62M520.208 227.183V277.192M520.208 227.183L476.899 252.187M520.208 227.183L563.518 252.187M520.208 277.192L476.899 302.197M520.208 277.192L563.518 302.197M476.899 302.197V252.187M476.899 302.197L520.208 327.201M476.899 302.197L433.59 327.201M606.827 227.183V277.192M606.827 227.183L563.518 252.187M606.827 227.183L650.136 252.187M606.827 277.192L563.518 302.197M606.827 277.192L650.136 302.197M563.518 302.197V252.187M563.518 302.197L606.827 327.201M563.518 302.197L520.208 327.201M693.445 227.183V277.192M693.445 227.183L650.136 252.187M693.445 227.183L736.754 252.187M693.445 277.192L650.136 302.197M693.445 277.192L736.754 302.197M650.136 302.197V252.187M650.136 302.197L693.445 327.201M650.136 302.197L606.827 327.201M780.063 227.183V277.192L736.754 302.197M780.063 227.183L736.754 252.187M736.754 302.197V252.187M736.754 302.197L780.063 327.201M736.754 302.197L693.445 327.201M87.1182 327.201V377.21M87.1182 327.201L43.8091 352.206M87.1182 327.201L130.427 352.206M87.1182 377.21L43.8091 402.215M87.1182 377.21L130.427 402.215M43.8091 402.215L0.50009 377.21V327.201M43.8091 402.215V352.206M43.8091 402.215L87.1182 427.219M43.8091 402.215L0.50009 427.219M0.50009 327.201L43.8091 352.206M130.427 402.215V352.206M130.427 402.215L173.736 427.219M130.427 402.215L87.1182 427.219M130.427 402.215L152.082 389.712M130.427 352.206L138.839 347.349M433.59 327.201V377.21M433.59 327.201L390.281 352.206M433.59 327.201L476.899 352.206M433.59 377.21L390.281 402.215M433.59 377.21L476.899 402.215M390.281 402.215V352.206M390.281 402.215L433.59 427.219M390.281 402.215L346.972 427.219M390.281 402.215L373.085 392.286M390.281 352.206L388.291 351.056M520.208 327.201V377.21M520.208 327.201L476.899 352.206M520.208 327.201L563.518 352.206M520.208 377.21L476.899 402.215M520.208 377.21L563.518 402.215M476.899 402.215V352.206M476.899 402.215L520.208 427.219M476.899 402.215L433.59 427.219M606.827 327.201V377.21M606.827 327.201L563.518 352.206M606.827 327.201L650.136 352.206M606.827 377.21L563.518 402.215M606.827 377.21L650.136 402.215M563.518 402.215V352.206M563.518 402.215L606.827 427.219M563.518 402.215L520.208 427.219M693.445 327.201V377.21M693.445 327.201L650.136 352.206M693.445 327.201L736.754 352.206M693.445 377.21L650.136 402.215M693.445 377.21L736.754 402.215M650.136 402.215V352.206M650.136 402.215L693.445 427.219M650.136 402.215L606.827 427.219M780.063 327.201V377.21L736.754 402.215M780.063 327.201L736.754 352.206M736.754 402.215V352.206M736.754 402.215L780.063 427.219M736.754 402.215L693.445 427.219M87.1182 427.219V477.228M87.1182 427.219L43.8091 452.223M87.1182 427.219L130.427 452.223M87.1182 477.228L43.8091 502.232M87.1182 477.228L130.427 502.232M43.8091 502.232L0.50009 477.228V427.219M43.8091 502.232V452.223M43.8091 502.232L87.1182 527.237M43.8091 502.232L0.50009 527.237M0.50009 427.219L43.8091 452.223M173.736 427.219V477.228M173.736 427.219L130.427 452.223M173.736 427.219L217.045 452.223M173.736 427.219L180.291 423.435M173.736 477.228L130.427 502.232M173.736 477.228L217.045 502.232M130.427 502.232V452.223M130.427 502.232L173.736 527.237M130.427 502.232L87.1182 527.237M260.354 477.228L217.045 502.232M260.354 477.228L303.663 502.232M260.354 477.228V454.956C261.522 454.988 262.694 455.004 263.869 455.004M217.045 502.232V452.223M217.045 502.232L260.354 527.237M217.045 502.232L173.736 527.237M217.045 452.223L223.583 448.449M346.972 427.219V477.228M346.972 427.219L390.281 452.223M346.972 427.219L344.616 425.858M346.972 427.219L325.318 439.721L303.663 452.223M346.972 477.228L303.663 502.232M346.972 477.228L390.281 502.232M303.663 502.232V452.223M303.663 502.232L346.972 527.237M303.663 502.232L260.354 527.237M303.663 452.223L299.606 449.881M433.59 427.219V477.228M433.59 427.219L390.281 452.223M433.59 427.219L476.899 452.223M433.59 477.228L390.281 502.232M433.59 477.228L476.899 502.232M390.281 502.232V452.223M390.281 502.232L433.59 527.237M390.281 502.232L346.972 527.237M520.208 427.219V477.228M520.208 427.219L476.899 452.223M520.208 427.219L563.518 452.223M520.208 477.228L476.899 502.232M520.208 477.228L563.518 502.232M476.899 502.232V452.223M476.899 502.232L520.208 527.237M476.899 502.232L433.59 527.237M606.827 427.219V477.228M606.827 427.219L563.518 452.223M606.827 427.219L650.136 452.223M606.827 477.228L563.518 502.232M606.827 477.228L650.136 502.232M563.518 502.232V452.223M563.518 502.232L606.827 527.237M563.518 502.232L520.208 527.237M693.445 427.219V477.228M693.445 427.219L650.136 452.223M693.445 427.219L736.754 452.223M693.445 477.228L650.136 502.232M693.445 477.228L736.754 502.232M650.136 502.232V452.223M650.136 502.232L693.445 527.237M650.136 502.232L606.827 527.237M780.063 427.219V477.228L736.754 502.232M780.063 427.219L736.754 452.223M736.754 502.232V452.223M736.754 502.232L780.063 527.237M736.754 502.232L693.445 527.237M87.1182 527.237V577.246M87.1182 527.237L43.8091 552.242M87.1182 527.237L130.427 552.242M87.1182 577.246L43.8091 602.25M87.1182 577.246L130.427 602.25M43.8091 602.25L0.50009 577.246V527.237M43.8091 602.25V552.242M0.50009 527.237L43.8091 552.242M173.736 527.237V577.246M173.736 527.237L130.427 552.242M173.736 527.237L217.045 552.242M173.736 577.246L130.427 602.25M173.736 577.246L217.045 602.25M130.427 602.25V552.242M260.354 527.237V577.246M260.354 527.237L217.045 552.242M260.354 527.237L303.663 552.242M260.354 577.246L217.045 602.25M260.354 577.246L303.663 602.25M217.045 602.25V552.242M346.972 527.237V577.246M346.972 527.237L303.663 552.242M346.972 527.237L390.281 552.242M346.972 577.246L303.663 602.25M346.972 577.246L390.281 602.25M303.663 602.25V552.242M433.59 527.237V577.246M433.59 527.237L390.281 552.242M433.59 527.237L476.899 552.242M433.59 577.246L390.281 602.25M433.59 577.246L476.899 602.25M390.281 602.25V552.242M520.208 527.237V577.246M520.208 527.237L476.899 552.242M520.208 527.237L563.518 552.242M520.208 577.246L476.899 602.25M520.208 577.246L563.518 602.25M476.899 602.25V552.242M606.827 527.237V577.246M606.827 527.237L563.518 552.242M606.827 527.237L650.136 552.242M606.827 577.246L563.518 602.25M606.827 577.246L650.136 602.25M563.518 602.25V552.242M693.445 527.237V577.246M693.445 527.237L650.136 552.242M693.445 527.237L736.754 552.242M693.445 577.246L650.136 602.25M693.445 577.246L736.754 602.25M650.136 602.25V552.242M780.063 527.237V577.246L736.754 602.25M780.063 527.237L736.754 552.242M736.754 602.25V552.242M87.1182 76.3738L43.8091 51.3693L0.50009 76.3738M87.1182 76.3738V126.383M87.1182 76.3738L43.8091 101.378M87.1182 76.3738L130.427 51.3693L173.736 76.3738M87.1182 76.3738L130.427 101.378M87.1182 126.383L43.8091 151.387M87.1182 126.383L130.427 151.387M43.8091 151.387L0.50009 126.383V76.3738M43.8091 151.387V101.378M0.50009 76.3738L43.8091 101.378M173.736 76.3738V126.383M173.736 76.3738L130.427 101.378M173.736 76.3738L217.045 51.3693L260.354 76.3738M173.736 76.3738L217.045 101.378M173.736 126.383L130.427 151.387M173.736 126.383L217.045 151.387M130.427 151.387V101.378M260.354 76.3738V126.383M260.354 76.3738L217.045 101.378M260.354 76.3738L303.663 51.3693L346.972 76.3738M260.354 76.3738L303.663 101.378M260.354 126.383L217.045 151.387M260.354 126.383L303.663 151.387M217.045 151.387V101.378M346.972 76.3738V126.383M346.972 76.3738L303.663 101.378M346.972 76.3738L390.281 51.3693L433.59 76.3738M346.972 76.3738L390.281 101.378M346.972 126.383L303.663 151.387M346.972 126.383L390.281 151.387M303.663 151.387V101.378M433.59 76.3738V126.383M433.59 76.3738L390.281 101.378M433.59 76.3738L476.899 51.3693L520.208 76.3738M433.59 76.3738L476.899 101.378M433.59 126.383L390.281 151.387M433.59 126.383L476.899 151.387M390.281 151.387V101.378M520.208 76.3738V126.383M520.208 76.3738L476.899 101.378M520.208 76.3738L563.518 51.3693L606.827 76.3738M520.208 76.3738L563.518 101.378M520.208 126.383L476.899 151.387M520.208 126.383L563.518 151.387M476.899 151.387V101.378M606.827 76.3738V126.383M606.827 76.3738L563.518 101.378M606.827 76.3738L650.136 51.3693L693.445 76.3738M606.827 76.3738L650.136 101.378M606.827 126.383L563.518 151.387M606.827 126.383L650.136 151.387M563.518 151.387V101.378M693.445 76.3738V126.383M693.445 76.3738L650.136 101.378M693.445 76.3738L736.754 51.3693L780.063 76.3738M693.445 76.3738L736.754 101.378M693.445 126.383L650.136 151.387M693.445 126.383L736.754 151.387M650.136 151.387V101.378M780.063 76.3738V126.383L736.754 151.387M780.063 76.3738L736.754 101.378M736.754 151.387V101.378M87.1182 25.582L43.8091 0.577496L0.50009 25.582M87.1182 25.582V75.5909M87.1182 25.582L43.8091 50.5865M87.1182 25.582L130.427 0.577496L173.736 25.582M87.1182 25.582L130.427 50.5865M87.1182 75.5909L43.8091 100.595M87.1182 75.5909L130.427 100.595M43.8091 100.595L0.50009 75.5909V25.582M43.8091 100.595V50.5865M0.50009 25.582L43.8091 50.5865M173.736 25.582V75.5909M173.736 25.582L130.427 50.5865M173.736 25.582L217.045 0.577496L260.354 25.582M173.736 25.582L217.045 50.5865M173.736 75.5909L130.427 100.595M173.736 75.5909L217.045 100.595M130.427 100.595V50.5865M260.354 25.582V75.5909M260.354 25.582L217.045 50.5865M260.354 25.582L303.663 0.577496L346.972 25.582M260.354 25.582L303.663 50.5865M260.354 75.5909L217.045 100.595M260.354 75.5909L303.663 100.595M217.045 100.595V50.5865M346.972 25.582V75.5909M346.972 25.582L303.663 50.5865M346.972 25.582L390.281 0.577496L433.59 25.582M346.972 25.582L390.281 50.5865M346.972 75.5909L303.663 100.595M346.972 75.5909L390.281 100.595M303.663 100.595V50.5865M433.59 25.582V75.5909M433.59 25.582L390.281 50.5865M433.59 25.582L476.899 0.577496L520.208 25.582M433.59 25.582L476.899 50.5865M433.59 75.5909L390.281 100.595M433.59 75.5909L476.899 100.595M390.281 100.595V50.5865M520.208 25.582V75.5909M520.208 25.582L476.899 50.5865M520.208 25.582L563.518 0.577496L606.827 25.582M520.208 25.582L563.518 50.5865M520.208 75.5909L476.899 100.595M520.208 75.5909L563.518 100.595M476.899 100.595V50.5865M606.827 25.582V75.5909M606.827 25.582L563.518 50.5865M606.827 25.582L650.136 0.577496L693.445 25.582M606.827 25.582L650.136 50.5865M606.827 75.5909L563.518 100.595M606.827 75.5909L650.136 100.595M563.518 100.595V50.5865M693.445 25.582V75.5909M693.445 25.582L650.136 50.5865M693.445 25.582L736.754 0.577496L780.063 25.582M693.445 25.582L736.754 50.5865M693.445 75.5909L650.136 100.595M693.445 75.5909L736.754 100.595M650.136 100.595V50.5865M780.063 25.582V75.5909L736.754 100.595M780.063 25.582L736.754 50.5865M736.754 100.595V50.5865M782.264 127.165V177.174L825.573 202.178M782.264 127.165L825.573 102.161L868.882 127.165M782.264 127.165L825.573 152.17M868.882 127.165V177.174M868.882 127.165L825.573 152.17M868.882 127.165L912.191 102.161L955.5 127.165M868.882 127.165L912.191 152.17M868.882 177.174L825.573 202.178M868.882 177.174L912.191 202.178M825.573 202.178V152.17M825.573 202.178L868.882 227.183M825.573 202.178L782.264 227.183M955.5 127.165V177.174L912.191 202.178M955.5 127.165L912.191 152.17M912.191 202.178V152.17M912.191 202.178L955.5 227.183M912.191 202.178L868.882 227.183M782.264 227.183V277.192L825.573 302.197M782.264 227.183L825.573 252.187M868.882 227.183V277.192M868.882 227.183L825.573 252.187M868.882 227.183L912.191 252.187M868.882 277.192L825.573 302.197M868.882 277.192L912.191 302.197M825.573 302.197V252.187M825.573 302.197L868.882 327.201M825.573 302.197L782.264 327.201M955.5 227.183V277.192L912.191 302.197M955.5 227.183L912.191 252.187M912.191 302.197V252.187M912.191 302.197L955.5 327.201M912.191 302.197L868.882 327.201M782.264 327.201V377.21L825.573 402.215M782.264 327.201L825.573 352.206M868.882 327.201V377.21M868.882 327.201L825.573 352.206M868.882 327.201L912.191 352.206M868.882 377.21L825.573 402.215M868.882 377.21L912.191 402.215M825.573 402.215V352.206M825.573 402.215L868.882 427.219M825.573 402.215L782.264 427.219M955.5 327.201V377.21L912.191 402.215M955.5 327.201L912.191 352.206M912.191 402.215V352.206M912.191 402.215L955.5 427.219M912.191 402.215L868.882 427.219M782.264 427.219V477.228L825.573 502.232M782.264 427.219L825.573 452.223M868.882 427.219V477.228M868.882 427.219L825.573 452.223M868.882 427.219L912.191 452.223M868.882 477.228L825.573 502.232M868.882 477.228L912.191 502.232M825.573 502.232V452.223M825.573 502.232L868.882 527.237M825.573 502.232L782.264 527.237M955.5 427.219V477.228L912.191 502.232M955.5 427.219L912.191 452.223M912.191 502.232V452.223M912.191 502.232L955.5 527.237M912.191 502.232L868.882 527.237M782.264 527.237V577.246L825.573 602.25M782.264 527.237L825.573 552.242M868.882 527.237V577.246M868.882 527.237L825.573 552.242M868.882 527.237L912.191 552.242M868.882 577.246L825.573 602.25M868.882 577.246L912.191 602.25M825.573 602.25V552.242M955.5 527.237V577.246L912.191 602.25M955.5 527.237L912.191 552.242M912.191 602.25V552.242M782.264 76.3738V126.383L825.573 151.387M782.264 76.3738L825.573 51.3693L868.882 76.3738M782.264 76.3738L825.573 101.378M868.882 76.3738V126.383M868.882 76.3738L825.573 101.378M868.882 76.3738L912.191 51.3693L955.5 76.3738M868.882 76.3738L912.191 101.378M868.882 126.383L825.573 151.387M868.882 126.383L912.191 151.387M825.573 151.387V101.378M955.5 76.3738V126.383L912.191 151.387M955.5 76.3738L912.191 101.378M912.191 151.387V101.378M782.264 25.582V75.5909L825.573 100.595M782.264 25.582L825.573 0.577496L868.882 25.582M782.264 25.582L825.573 50.5865M868.882 25.582V75.5909M868.882 25.582L825.573 50.5865M868.882 25.582L912.191 0.577496L955.5 25.582M868.882 25.582L912.191 50.5865M868.882 75.5909L825.573 100.595M868.882 75.5909L912.191 100.595M825.573 100.595V50.5865M955.5 25.582V75.5909L912.191 100.595M955.5 25.582L912.191 50.5865M912.191 100.595V50.5865" stroke="#004876" stroke-opacity="0.32"/>
</svg>
